<?xml version='1.0' encoding='utf-8'?>
<svg xmlns="http://www.w3.org/2000/svg" viewBox="0 0 640 460" width="640" height="460" role="img" aria-labelledby="title description" font-family="Arial, Malgun Gothic, Apple SD Gothic Neo, sans-serif"><title id="title">코르크에서 보이는 작은 칸</title><desc id="description">코르크의 칸을 확대해 벽과 빈 공간을 구분한 설명용 그림</desc><defs><marker id="arrow" viewBox="0 0 10 10" refX="9" refY="5" markerWidth="8" markerHeight="8" orient="auto-start-reverse"><path d="M 0 0 L 10 5 L 0 10 z" fill="#2d6c68" /></marker></defs><rect x="1" y="1" width="638" height="458" fill="#f7f4ed" stroke="#d7d5ca" stroke-width="2" rx="12" /><text x="320" y="45" fill="#8c451e" font-size="28" text-anchor="middle">코르크에서 보이는 작은 칸</text><rect x="33" y="135" width="190" height="166" fill="#e7ddc6" stroke="#8c451e" stroke-width="2" rx="8" /><line x1="43" y1="145" x2="43" y2="291" stroke="#8c451e" stroke-width="1" stroke-linecap="round" /><line x1="73" y1="145" x2="73" y2="291" stroke="#8c451e" stroke-width="1" stroke-linecap="round" /><line x1="103" y1="145" x2="103" y2="291" stroke="#8c451e" stroke-width="1" stroke-linecap="round" /><line x1="133" y1="145" x2="133" y2="291" stroke="#8c451e" stroke-width="1" stroke-linecap="round" /><line x1="163" y1="145" x2="163" y2="291" stroke="#8c451e" stroke-width="1" stroke-linecap="round" /><line x1="193" y1="145" x2="193" y2="291" stroke="#8c451e" stroke-width="1" stroke-linecap="round" /><line x1="243" y1="221" x2="302" y2="221" stroke="#2d6c68" stroke-width="3" stroke-linecap="round" marker-end="url(#arrow)" /><circle cx="455" cy="223" r="131" fill="#fcfaf5" stroke="#2d6c68" stroke-width="2" /><path d="M362 166 l14 -24 h28 l14 24 l-14 24 h-28 z" stroke="#8c451e" stroke-width="2" fill="none" stroke-linecap="round" stroke-linejoin="round" /><path d="M428 166 l14 -24 h28 l14 24 l-14 24 h-28 z" stroke="#8c451e" stroke-width="2" fill="none" stroke-linecap="round" stroke-linejoin="round" /><path d="M395 225 l14 -24 h28 l14 24 l-14 24 h-28 z" stroke="#8c451e" stroke-width="2" fill="none" stroke-linecap="round" stroke-linejoin="round" /><path d="M461 225 l14 -24 h28 l14 24 l-14 24 h-28 z" stroke="#8c451e" stroke-width="2" fill="none" stroke-linecap="round" stroke-linejoin="round" /><path d="M362 284 l14 -24 h28 l14 24 l-14 24 h-28 z" stroke="#8c451e" stroke-width="2" fill="none" stroke-linecap="round" stroke-linejoin="round" /><path d="M428 284 l14 -24 h28 l14 24 l-14 24 h-28 z" stroke="#8c451e" stroke-width="2" fill="none" stroke-linecap="round" stroke-linejoin="round" /><text x="126" y="356" fill="#202b2c" font-size="27" text-anchor="middle">코르크 표본</text><text x="455" y="402" fill="#202b2c" font-size="29" text-anchor="middle">벽과 작은 칸</text></svg>