<?xml version='1.0' encoding='utf-8'?>
<svg xmlns="http://www.w3.org/2000/svg" viewBox="0 0 640 460" width="640" height="460" role="img" aria-labelledby="title description" font-family="Arial, Malgun Gothic, Apple SD Gothic Neo, sans-serif"><title id="title">두 시각 사이에 남는 경도</title><desc id="description">현지 정오와 기준 시각 11시를 비교해 한 시간과 15도를 연결한 계산 예시</desc><defs><marker id="arrow" viewBox="0 0 10 10" refX="9" refY="5" markerWidth="8" markerHeight="8" orient="auto-start-reverse"><path d="M 0 0 L 10 5 L 0 10 z" fill="#2d6c68" /></marker></defs><rect x="1" y="1" width="638" height="458" fill="#f7f4ed" stroke="#d7d5ca" stroke-width="2" rx="12" /><text x="320" y="45" fill="#8c451e" font-size="28" text-anchor="middle">두 시각 사이에 남는 경도</text><circle cx="170" cy="200" r="65" fill="#fcfaf5" stroke="#202b2c" stroke-width="2" /><line x1="170" y1="200" x2="170" y2="157" stroke="#2d6c68" stroke-width="5" stroke-linecap="round" /><line x1="170" y1="200" x2="170.0" y2="168.0" stroke="#8c451e" stroke-width="5" stroke-linecap="round" /><line x1="170.0" y1="146.0" x2="170.0" y2="141.0" stroke="#d7d5ca" stroke-width="2" stroke-linecap="round" /><line x1="197.0" y1="153.2346281956403" x2="199.5" y2="148.9045011767181" stroke="#d7d5ca" stroke-width="2" stroke-linecap="round" /><line x1="216.7653718043597" y1="173.0" x2="221.09549882328187" y2="170.5" stroke="#d7d5ca" stroke-width="2" stroke-linecap="round" /><line x1="224.0" y1="200.0" x2="229.0" y2="200.0" stroke="#d7d5ca" stroke-width="2" stroke-linecap="round" /><line x1="216.7653718043597" y1="227.0" x2="221.0954988232819" y2="229.5" stroke="#d7d5ca" stroke-width="2" stroke-linecap="round" /><line x1="197.0" y1="246.7653718043597" x2="199.5" y2="251.0954988232819" stroke="#d7d5ca" stroke-width="2" stroke-linecap="round" /><line x1="170.0" y1="254.0" x2="170.0" y2="259.0" stroke="#d7d5ca" stroke-width="2" stroke-linecap="round" /><line x1="143.0" y1="246.7653718043597" x2="140.50000000000003" y2="251.0954988232819" stroke="#d7d5ca" stroke-width="2" stroke-linecap="round" /><line x1="123.23462819564031" y1="227.00000000000003" x2="118.90450117671813" y2="229.50000000000003" stroke="#d7d5ca" stroke-width="2" stroke-linecap="round" /><line x1="116.0" y1="200.0" x2="111.0" y2="200.0" stroke="#d7d5ca" stroke-width="2" stroke-linecap="round" /><line x1="123.23462819564031" y1="173.0" x2="118.90450117671813" y2="170.5" stroke="#d7d5ca" stroke-width="2" stroke-linecap="round" /><line x1="142.99999999999997" y1="153.2346281956403" x2="140.49999999999997" y2="148.90450117671813" stroke="#d7d5ca" stroke-width="2" stroke-linecap="round" /><circle cx="470" cy="200" r="65" fill="#fcfaf5" stroke="#202b2c" stroke-width="2" /><line x1="470" y1="200" x2="470" y2="157" stroke="#2d6c68" stroke-width="5" stroke-linecap="round" /><line x1="470" y1="200" x2="454.0" y2="172.28718707889797" stroke="#8c451e" stroke-width="5" stroke-linecap="round" /><line x1="470.0" y1="146.0" x2="470.0" y2="141.0" stroke="#d7d5ca" stroke-width="2" stroke-linecap="round" /><line x1="497.0" y1="153.2346281956403" x2="499.5" y2="148.9045011767181" stroke="#d7d5ca" stroke-width="2" stroke-linecap="round" /><line x1="516.7653718043597" y1="173.0" x2="521.0954988232819" y2="170.5" stroke="#d7d5ca" stroke-width="2" stroke-linecap="round" /><line x1="524.0" y1="200.0" x2="529.0" y2="200.0" stroke="#d7d5ca" stroke-width="2" stroke-linecap="round" /><line x1="516.7653718043597" y1="227.0" x2="521.0954988232819" y2="229.5" stroke="#d7d5ca" stroke-width="2" stroke-linecap="round" /><line x1="497.0" y1="246.7653718043597" x2="499.5" y2="251.0954988232819" stroke="#d7d5ca" stroke-width="2" stroke-linecap="round" /><line x1="470.0" y1="254.0" x2="470.0" y2="259.0" stroke="#d7d5ca" stroke-width="2" stroke-linecap="round" /><line x1="443.0" y1="246.7653718043597" x2="440.5" y2="251.0954988232819" stroke="#d7d5ca" stroke-width="2" stroke-linecap="round" /><line x1="423.2346281956403" y1="227.00000000000003" x2="418.9045011767181" y2="229.50000000000003" stroke="#d7d5ca" stroke-width="2" stroke-linecap="round" /><line x1="416.0" y1="200.0" x2="411.0" y2="200.0" stroke="#d7d5ca" stroke-width="2" stroke-linecap="round" /><line x1="423.2346281956403" y1="173.0" x2="418.9045011767181" y2="170.5" stroke="#d7d5ca" stroke-width="2" stroke-linecap="round" /><line x1="443.0" y1="153.2346281956403" x2="440.5" y2="148.90450117671813" stroke="#d7d5ca" stroke-width="2" stroke-linecap="round" /><text x="170" y="309" fill="#202b2c" font-size="30" text-anchor="middle">현지 정오</text><text x="470" y="309" fill="#202b2c" font-size="30" text-anchor="middle">기준 시각</text><text x="170" y="350" fill="#202b2c" font-size="26" text-anchor="middle">12:00</text><text x="470" y="350" fill="#202b2c" font-size="26" text-anchor="middle">11:00</text><text x="320" y="419" fill="#202b2c" font-size="27" text-anchor="middle">시각 차이 1시간 → 경도 차이 15°</text></svg>