<?xml version='1.0' encoding='utf-8'?>
<svg xmlns="http://www.w3.org/2000/svg" viewBox="0 0 640 460" width="640" height="460" role="img" aria-labelledby="title description" font-family="Arial, Malgun Gothic, Apple SD Gothic Neo, sans-serif"><title id="title">읽고 쓰고 이동하는 한 단계</title><desc id="description">테이프의 현재 칸, 읽기·쓰기 헤드와 상태 규칙의 관계를 보여 주는 계산 모형</desc><defs><marker id="arrow" viewBox="0 0 10 10" refX="9" refY="5" markerWidth="8" markerHeight="8" orient="auto-start-reverse"><path d="M 0 0 L 10 5 L 0 10 z" fill="#2d6c68" /></marker></defs><rect x="1" y="1" width="638" height="458" fill="#f7f4ed" stroke="#d7d5ca" stroke-width="2" rx="12" /><text x="320" y="45" fill="#8c451e" font-size="28" text-anchor="middle">읽고 쓰고 이동하는 한 단계</text><rect x="33" y="178" width="91" height="76" fill="#eeece3" stroke="#d7d5ca" stroke-width="2" rx="8" /><text x="78.5" y="226.0" fill="#202b2c" font-size="32" text-anchor="middle">…</text><rect x="128" y="178" width="91" height="76" fill="#eeece3" stroke="#d7d5ca" stroke-width="2" rx="8" /><text x="173.5" y="226.0" fill="#202b2c" font-size="32" text-anchor="middle">0</text><rect x="223" y="178" width="91" height="76" fill="#e6ece7" stroke="#d7d5ca" stroke-width="2" rx="8" /><text x="268.5" y="226.0" fill="#202b2c" font-size="32" text-anchor="middle">1</text><rect x="318" y="178" width="91" height="76" fill="#eeece3" stroke="#d7d5ca" stroke-width="2" rx="8" /><text x="363.5" y="226.0" fill="#202b2c" font-size="32" text-anchor="middle">0</text><rect x="413" y="178" width="91" height="76" fill="#eeece3" stroke="#d7d5ca" stroke-width="2" rx="8" /><text x="458.5" y="226.0" fill="#202b2c" font-size="32" text-anchor="middle">1</text><rect x="508" y="178" width="91" height="76" fill="#eeece3" stroke="#d7d5ca" stroke-width="2" rx="8" /><text x="553.5" y="226.0" fill="#202b2c" font-size="32" text-anchor="middle">…</text><path d="M240 160 L270 131 L298 160" stroke="#8c451e" stroke-width="4" fill="none" stroke-linecap="round" stroke-linejoin="round" /><rect x="198" y="79" width="146" height="60" fill="#eeece3" stroke="#d7d5ca" stroke-width="2" rx="8" /><text x="271.0" y="119.0" fill="#202b2c" font-size="28" text-anchor="middle">헤드</text><line x1="270" y1="264" x2="270" y2="319" stroke="#2d6c68" stroke-width="3" stroke-linecap="round" marker-end="url(#arrow)" /><rect x="110" y="334" width="420" height="70" fill="#eeece3" stroke="#d7d5ca" stroke-width="2" rx="8" /><text x="320.0" y="379.0" fill="#202b2c" font-size="24" text-anchor="middle">상태 규칙 · 읽기 / 쓰기 / 이동</text></svg>