<?xml version="1.0" encoding="UTF-8"?>
<svg xmlns="http://www.w3.org/2000/svg" width="1200" height="675" viewBox="0 0 1200 675" role="img">
  <title>업무 후보를 반복 빈도와 실패 비용으로 나누는 자동화 우선순위 매트릭스</title>
  <defs>
    <marker id="arrow" markerWidth="12" markerHeight="12" refX="10" refY="6" orient="auto" markerUnits="strokeWidth">
      <path d="M2,2 L10,6 L2,10 Z" fill="#0f766e"/>
    </marker>
    <linearGradient id="panel" x1="0" x2="1" y1="0" y2="1">
      <stop offset="0" stop-color="#ffffff"/>
      <stop offset="1" stop-color="#f8fafc"/>
    </linearGradient>
  </defs>
  <rect width="1200" height="675" fill="#f8fafc"/>
  <rect x="44" y="44" width="1112" height="587" rx="32" fill="url(#panel)" stroke="#dbe4e8" stroke-width="2"/>
  <rect x="82" y="82" width="58" height="42" rx="12" fill="#102a43"/>
  <text x="111" y="110" text-anchor="middle" fill="#ffffff" font-family="Arial, 'Malgun Gothic', sans-serif" font-size="21" font-weight="700">B2</text>
  <g opacity="0.9">
    <circle cx="1084" cy="108" r="10" fill="#f59e0b"/>
    <circle cx="1114" cy="108" r="10" fill="#0f766e" opacity="0.72"/>
  </g>

    <g data-family="priority-matrix">
      <rect x="108" y="132" width="520" height="420" rx="26" fill="#ffffff" stroke="#d8e2e7" stroke-width="2"/>
      <path d="M180 498 V190 H568" stroke="#102a43" stroke-width="4" stroke-linecap="round"/>
      <path d="M180 344 H568 M374 190 V498" stroke="#cbd5e1" stroke-width="2"/>
      <text x="228" y="238" text-anchor="start" fill="#102a43" font-family="Arial, 'Malgun Gothic', sans-serif" font-size="22" font-weight="700">빈도</text>
      <text x="438" y="238" text-anchor="start" fill="#102a43" font-family="Arial, 'Malgun Gothic', sans-serif" font-size="22" font-weight="700">위험</text>
      <text x="228" y="452" text-anchor="start" fill="#102a43" font-family="Arial, 'Malgun Gothic', sans-serif" font-size="22" font-weight="700">효과</text>
      <text x="438" y="452" text-anchor="start" fill="#102a43" font-family="Arial, 'Malgun Gothic', sans-serif" font-size="22" font-weight="700">대기</text>
      <circle cx="478" cy="278" r="20" fill="#f59e0b"/>
      <circle cx="284" cy="408" r="16" fill="#0f766e"/>
      <circle cx="510" cy="424" r="13" fill="#0f766e" opacity="0.7"/>
      <circle cx="302" cy="270" r="12" fill="#102a43" opacity="0.35"/>

    <g>
      <rect x="705" y="154" width="322" height="88" rx="18" fill="#ffffff" stroke="#d8e2e7" stroke-width="2"/>
      <path d="M731 196 l9 10 l20 -27" fill="none" stroke="#0f766e" stroke-width="6" stroke-linecap="round" stroke-linejoin="round"/>
      <text x="787" y="206" text-anchor="start" fill="#102a43" font-family="Arial, 'Malgun Gothic', sans-serif" font-size="23" font-weight="700">효과</text>
      <rect x="731" y="214" width="230" height="8" rx="4" fill="#0f766e" opacity="0.2"/>
    </g>

    <g>
      <rect x="756" y="292" width="322" height="88" rx="18" fill="#d8f3ee" stroke="#d8e2e7" stroke-width="2"/>
      <circle cx="799" cy="335" r="15" fill="#0f766e" opacity="0.14"/><circle cx="799" cy="335" r="6" fill="#0f766e"/>
      <text x="838" y="344" text-anchor="start" fill="#102a43" font-family="Arial, 'Malgun Gothic', sans-serif" font-size="23" font-weight="700">빈도</text>
      <rect x="782" y="352" width="230" height="8" rx="4" fill="#0f766e" opacity="0.2"/>
    </g>

    <g>
      <rect x="705" y="430" width="322" height="88" rx="18" fill="#ffffff" stroke="#d8e2e7" stroke-width="2"/>
      <rect x="727" y="452" width="42" height="38" rx="8" fill="#0f766e" opacity="0.14"/><path d="M735 465 h26 M741 455 v10 M755 455 v10" stroke="#0f766e" stroke-width="4" stroke-linecap="round"/>
      <text x="787" y="482" text-anchor="start" fill="#102a43" font-family="Arial, 'Malgun Gothic', sans-serif" font-size="23" font-weight="700">대기</text>
      <rect x="731" y="490" width="230" height="8" rx="4" fill="#0f766e" opacity="0.2"/>
    </g>
    </g>
</svg>
