<?xml version="1.0" encoding="UTF-8"?>
<svg xmlns="http://www.w3.org/2000/svg" width="1200" height="675" viewBox="0 0 1200 675" role="img">
  <title>흩어진 회의 메모와 고객 요청을 정리된 업무 문서로 바꾸는 문서 정리 보드</title>
  <defs>
    <marker id="arrow" markerWidth="12" markerHeight="12" refX="10" refY="6" orient="auto" markerUnits="strokeWidth">
      <path d="M2,2 L10,6 L2,10 Z" fill="#0f766e"/>
    </marker>
    <linearGradient id="panel" x1="0" x2="1" y1="0" y2="1">
      <stop offset="0" stop-color="#ffffff"/>
      <stop offset="1" stop-color="#f8fafc"/>
    </linearGradient>
  </defs>
  <rect width="1200" height="675" fill="#f8fafc"/>
  <rect x="44" y="44" width="1112" height="587" rx="32" fill="url(#panel)" stroke="#dbe4e8" stroke-width="2"/>
  <rect x="82" y="82" width="58" height="42" rx="12" fill="#102a43"/>
  <text x="111" y="110" text-anchor="middle" fill="#ffffff" font-family="Arial, 'Malgun Gothic', sans-serif" font-size="21" font-weight="700">B2</text>
  <g opacity="0.9">
    <circle cx="1084" cy="108" r="10" fill="#f59e0b"/>
    <circle cx="1114" cy="108" r="10" fill="#0f766e" opacity="0.72"/>
  </g>

    <g data-family="document-cleanup-board">
      <rect x="112" y="150" width="250" height="330" rx="22" fill="#ffffff" stroke="#d8e2e7" stroke-width="2" transform="rotate(-4 112 150)"/>
      <rect x="156" y="124" width="250" height="330" rx="22" fill="#f8fafc" stroke="#d8e2e7" stroke-width="2" transform="rotate(5 156 124)"/>
      <rect x="202" y="158" width="250" height="330" rx="22" fill="#ffffff" stroke="#d8e2e7" stroke-width="2"/>
      <text x="246" y="220" text-anchor="start" fill="#102a43" font-family="Arial, 'Malgun Gothic', sans-serif" font-size="24" font-weight="700">메모</text>
      <rect x="246" y="258" width="138" height="10" rx="5" fill="#0f766e" opacity="0.45"/>
      <rect x="246" y="286" width="168" height="10" rx="5" fill="#cbd5e1"/>
      <rect x="246" y="314" width="116" height="10" rx="5" fill="#cbd5e1"/>
      <path d="M520 312 l82 64 l-82 64 z" fill="#d8f3ee" stroke="#0f766e" stroke-width="3"/>
      <text x="562" y="384" text-anchor="middle" fill="#102a43" font-family="Arial, 'Malgun Gothic', sans-serif" font-size="20" font-weight="700">초안</text>
      <rect x="726" y="154" width="314" height="370" rx="26" fill="#ffffff" stroke="#d8e2e7" stroke-width="2"/>
      <text x="772" y="218" text-anchor="start" fill="#102a43" font-family="Arial, 'Malgun Gothic', sans-serif" font-size="24" font-weight="700">정리</text>

    <g>
      <rect x="770" y="258" width="222" height="116" rx="18" fill="#ffffff" stroke="#d8e2e7" stroke-width="2"/>
      <text x="794" y="300" text-anchor="start" fill="#102a43" font-family="Arial, 'Malgun Gothic', sans-serif" font-size="22" font-weight="700">요청</text>
      <rect x="794" y="324" width="164" height="12" rx="6" fill="#d8f3ee"/>
      <rect x="794" y="324" width="95" height="12" rx="6" fill="#0f766e"/>
    </g>

    <g>
      <rect x="770" y="404" width="222" height="116" rx="18" fill="#ffffff" stroke="#d8e2e7" stroke-width="2"/>
      <text x="794" y="446" text-anchor="start" fill="#102a43" font-family="Arial, 'Malgun Gothic', sans-serif" font-size="22" font-weight="700">초안</text>
      <rect x="794" y="470" width="164" height="12" rx="6" fill="#d8f3ee"/>
      <rect x="794" y="470" width="95" height="12" rx="6" fill="#0f766e"/>
    </g>
    </g>
</svg>
