<?xml version="1.0" encoding="UTF-8"?>
<svg xmlns="http://www.w3.org/2000/svg" width="1200" height="800" viewBox="0 0 1200 800" role="img">
  <defs>
    <marker id="arrow" markerWidth="12" markerHeight="12" refX="10" refY="6" orient="auto" markerUnits="strokeWidth">
      <path d="M2,2 L10,6 L2,10 Z" fill="#047857"/>
    </marker>
    <linearGradient id="bg" x1="0" x2="1" y1="0" y2="1">
      <stop offset="0" stop-color="#ffffff"/>
      <stop offset="1" stop-color="#f1f5f9"/>
    </linearGradient>
  </defs>
  <rect width="1200" height="800" fill="#f8fafc"/>
  <rect x="46" y="46" width="1108" height="708" rx="34" fill="url(#bg)" stroke="#dbe4e8" stroke-width="2"/>
  <rect x="88" y="88" width="154" height="44" rx="12" fill="#1f2937"/>
  <text x="116" y="117" fill="#ffffff" font-family="Arial, sans-serif" font-size="22" font-weight="800">Biz2Lab</text>
  <text x="88" y="196" fill="#1f2937" font-family="Arial, 'Malgun Gothic', sans-serif" font-size="38" font-weight="800">고객 이력 기억 시스템</text>
  <text x="90" y="238" fill="#64748b" font-family="Arial, sans-serif" font-size="22">Hero for practical operations</text>
  <rect x="86" y="292" width="1028" height="230" rx="28" fill="#d1fae5" opacity="0.42"/>
  <g>
        <rect x="96" y="330" width="168" height="112" rx="18" fill="#ffffff" stroke="#d8e2e7" stroke-width="2"/>
        <circle cx="130" cy="366" r="13" fill="#047857" opacity="0.2"/>
        <circle cx="130" cy="366" r="6" fill="#047857"/>
        <text x="154" y="375" fill="#1e293b" font-family="Arial, 'Malgun Gothic', sans-serif" font-size="22" font-weight="700">문제</text>
        <rect x="124" y="402" width="80" height="8" rx="4" fill="#047857" opacity="0.32"/>
      </g>
<g>
        <rect x="301" y="330" width="168" height="112" rx="18" fill="#ffffff" stroke="#d8e2e7" stroke-width="2"/>
        <circle cx="335" cy="366" r="13" fill="#047857" opacity="0.2"/>
        <circle cx="335" cy="366" r="6" fill="#047857"/>
        <text x="359" y="375" fill="#1e293b" font-family="Arial, 'Malgun Gothic', sans-serif" font-size="22" font-weight="700">기준</text>
        <rect x="329" y="402" width="90" height="8" rx="4" fill="#047857" opacity="0.32"/>
      </g>
<g>
        <rect x="506" y="330" width="168" height="112" rx="18" fill="#ffffff" stroke="#d8e2e7" stroke-width="2"/>
        <circle cx="540" cy="366" r="13" fill="#047857" opacity="0.2"/>
        <circle cx="540" cy="366" r="6" fill="#047857"/>
        <text x="564" y="375" fill="#1e293b" font-family="Arial, 'Malgun Gothic', sans-serif" font-size="22" font-weight="700">실행</text>
        <rect x="534" y="402" width="100" height="8" rx="4" fill="#047857" opacity="0.32"/>
      </g>
<g>
        <rect x="711" y="330" width="168" height="112" rx="18" fill="#ffffff" stroke="#d8e2e7" stroke-width="2"/>
        <circle cx="745" cy="366" r="13" fill="#047857" opacity="0.2"/>
        <circle cx="745" cy="366" r="6" fill="#047857"/>
        <text x="769" y="375" fill="#1e293b" font-family="Arial, 'Malgun Gothic', sans-serif" font-size="22" font-weight="700">검토</text>
        <rect x="739" y="402" width="110" height="8" rx="4" fill="#047857" opacity="0.32"/>
      </g>
<g>
        <rect x="916" y="330" width="168" height="112" rx="18" fill="#ffffff" stroke="#d8e2e7" stroke-width="2"/>
        <circle cx="950" cy="366" r="13" fill="#f97316" opacity="0.2"/>
        <circle cx="950" cy="366" r="6" fill="#f97316"/>
        <text x="974" y="375" fill="#1e293b" font-family="Arial, 'Malgun Gothic', sans-serif" font-size="22" font-weight="700">개선</text>
        <rect x="944" y="402" width="120" height="8" rx="4" fill="#047857" opacity="0.32"/>
      </g>
  <path d="M 264 386 C 276 386, 288 386, 300 386" stroke="#047857" stroke-width="4" fill="none" stroke-linecap="round" marker-end="url(#arrow)"/>
<path d="M 469 386 C 481 386, 493 386, 505 386" stroke="#047857" stroke-width="4" fill="none" stroke-linecap="round" marker-end="url(#arrow)"/>
<path d="M 674 386 C 686 386, 698 386, 710 386" stroke="#047857" stroke-width="4" fill="none" stroke-linecap="round" marker-end="url(#arrow)"/>
<path d="M 879 386 C 891 386, 903 386, 915 386" stroke="#047857" stroke-width="4" fill="none" stroke-linecap="round" marker-end="url(#arrow)"/>
  <rect x="122" y="596" width="700" height="62" rx="18" fill="#ffffff" stroke="#d8e2e7" stroke-width="2"/>
  <rect x="154" y="620" width="210" height="10" rx="5" fill="#047857" opacity="0.58"/>
  <rect x="154" y="644" width="520" height="10" rx="5" fill="#1f2937" opacity="0.16"/>
  <circle cx="940" cy="626" r="26" fill="#f97316"/>
  <path d="M929 626 l8 9 l18 -23" fill="none" stroke="#ffffff" stroke-width="6" stroke-linecap="round" stroke-linejoin="round"/>
</svg>
