<?xml version="1.0" encoding="UTF-8"?>
<svg xmlns="http://www.w3.org/2000/svg" width="1200" height="675" viewBox="0 0 1200 675" role="img">
  <title>소상공인이 매일 확인할 매출과 주문, 객단가, 미처리 업무 대시보드</title>
  <defs>
    <marker id="arrow" markerWidth="12" markerHeight="12" refX="10" refY="6" orient="auto" markerUnits="strokeWidth">
      <path d="M2,2 L10,6 L2,10 Z" fill="#047857"/>
    </marker>
    <linearGradient id="panel" x1="0" x2="1" y1="0" y2="1">
      <stop offset="0" stop-color="#ffffff"/>
      <stop offset="1" stop-color="#fbfdf8"/>
    </linearGradient>
  </defs>
  <rect width="1200" height="675" fill="#fbfdf8"/>
  <rect x="44" y="44" width="1112" height="587" rx="32" fill="url(#panel)" stroke="#dbe4e8" stroke-width="2"/>
  <rect x="82" y="82" width="58" height="42" rx="12" fill="#1f2937"/>
  <text x="111" y="110" text-anchor="middle" fill="#ffffff" font-family="Arial, 'Malgun Gothic', sans-serif" font-size="21" font-weight="700">B2</text>
  <g opacity="0.9">
    <circle cx="1084" cy="108" r="10" fill="#f97316"/>
    <circle cx="1114" cy="108" r="10" fill="#047857" opacity="0.72"/>
  </g>

    <g data-family="daily-numbers-dashboard">
      <rect x="102" y="130" width="996" height="430" rx="28" fill="#ffffff" stroke="#d8e2e7" stroke-width="2"/>

    <g>
      <rect x="146" y="178" width="196" height="116" rx="18" fill="#ffffff" stroke="#d8e2e7" stroke-width="2"/>
      <text x="170" y="220" text-anchor="start" fill="#1f2937" font-family="Arial, 'Malgun Gothic', sans-serif" font-size="22" font-weight="700">매출</text>
      <rect x="170" y="244" width="138" height="12" rx="6" fill="#d1fae5"/>
      <rect x="170" y="244" width="80" height="12" rx="6" fill="#047857"/>
    </g>

    <g>
      <rect x="376" y="178" width="196" height="116" rx="18" fill="#ffffff" stroke="#d8e2e7" stroke-width="2"/>
      <text x="400" y="220" text-anchor="start" fill="#1f2937" font-family="Arial, 'Malgun Gothic', sans-serif" font-size="22" font-weight="700">주문</text>
      <rect x="400" y="244" width="138" height="12" rx="6" fill="#d1fae5"/>
      <rect x="400" y="244" width="80" height="12" rx="6" fill="#047857"/>
    </g>

    <g>
      <rect x="606" y="178" width="196" height="116" rx="18" fill="#ffffff" stroke="#d8e2e7" stroke-width="2"/>
      <text x="630" y="220" text-anchor="start" fill="#1f2937" font-family="Arial, 'Malgun Gothic', sans-serif" font-size="22" font-weight="700">객단가</text>
      <rect x="630" y="244" width="138" height="12" rx="6" fill="#d1fae5"/>
      <rect x="630" y="244" width="80" height="12" rx="6" fill="#047857"/>
    </g>

    <g>
      <rect x="836" y="178" width="196" height="116" rx="18" fill="#ffffff" stroke="#d8e2e7" stroke-width="2"/>
      <text x="860" y="220" text-anchor="start" fill="#1f2937" font-family="Arial, 'Malgun Gothic', sans-serif" font-size="22" font-weight="700">미처리</text>
      <rect x="860" y="244" width="138" height="12" rx="6" fill="#d1fae5"/>
      <rect x="860" y="244" width="80" height="12" rx="6" fill="#047857"/>
    </g>
      <path d="M178 476 C 310 352, 422 454, 548 358 S 812 422, 982 302" fill="none" stroke="#047857" stroke-width="8" stroke-linecap="round"/>
      <rect x="166" y="492" width="820" height="16" rx="8" fill="#d1fae5"/>
    </g>
</svg>
