<?xml version="1.0" encoding="UTF-8"?>
<svg xmlns="http://www.w3.org/2000/svg" width="1200" height="675" viewBox="0 0 1200 675" role="img">
  <title>전자서명과 본인확인 절차를 나란히 비교한 계약 업무 흐름</title>
  <defs>
    <marker id="arrow" markerWidth="12" markerHeight="12" refX="10" refY="6" orient="auto" markerUnits="strokeWidth">
      <path d="M2,2 L10,6 L2,10 Z" fill="#334155"/>
    </marker>
    <linearGradient id="panel" x1="0" x2="1" y1="0" y2="1">
      <stop offset="0" stop-color="#ffffff"/>
      <stop offset="1" stop-color="#f8fafc"/>
    </linearGradient>
  </defs>
  <rect width="1200" height="675" fill="#f8fafc"/>
  <rect x="44" y="44" width="1112" height="587" rx="32" fill="url(#panel)" stroke="#dbe4e8" stroke-width="2"/>
  <rect x="82" y="82" width="58" height="42" rx="12" fill="#0f172a"/>
  <text x="111" y="110" text-anchor="middle" fill="#ffffff" font-family="Arial, 'Malgun Gothic', sans-serif" font-size="21" font-weight="700">B2</text>
  <g opacity="0.9">
    <circle cx="1084" cy="108" r="10" fill="#0d9488"/>
    <circle cx="1114" cy="108" r="10" fill="#334155" opacity="0.72"/>
  </g>

    <g data-family="identity-signature-split">
      <path d="M154 340 H1038" stroke="#334155" stroke-width="8" stroke-linecap="round"/>
      <circle cx="184" cy="340" r="26" fill="#ffffff" stroke="#334155" stroke-width="6"/>
    <g>
      <rect x="88" y="168" width="192" height="106" rx="18" fill="#ffffff" stroke="#d8e2e7" stroke-width="2"/>
      <path d="M112 190 h34 l14 14 v30 h-48 z" fill="#334155" opacity="0.14"/><path d="M146 190 v14 h14" fill="none" stroke="#334155" stroke-width="3"/>
      <text x="170" y="220" text-anchor="start" fill="#0f172a" font-family="Arial, 'Malgun Gothic', sans-serif" font-size="23" font-weight="700">서명</text>
      <rect x="114" y="246" width="100" height="8" rx="4" fill="#334155" opacity="0.2"/>
    </g><circle cx="464" cy="340" r="26" fill="#ffffff" stroke="#334155" stroke-width="6"/>
    <g>
      <rect x="368" y="388" width="192" height="106" rx="18" fill="#ffffff" stroke="#d8e2e7" stroke-width="2"/>
      <rect x="390" y="410" width="42" height="38" rx="8" fill="#334155" opacity="0.14"/><path d="M398 423 h26 M404 413 v10 M418 413 v10" stroke="#334155" stroke-width="4" stroke-linecap="round"/>
      <text x="450" y="440" text-anchor="start" fill="#0f172a" font-family="Arial, 'Malgun Gothic', sans-serif" font-size="23" font-weight="700">확인</text>
      <rect x="394" y="466" width="100" height="8" rx="4" fill="#334155" opacity="0.2"/>
    </g><circle cx="744" cy="340" r="26" fill="#ffffff" stroke="#334155" stroke-width="6"/>
    <g>
      <rect x="648" y="168" width="192" height="106" rx="18" fill="#ffffff" stroke="#d8e2e7" stroke-width="2"/>
      <path d="M672 190 h34 l14 14 v30 h-48 z" fill="#334155" opacity="0.14"/><path d="M706 190 v14 h14" fill="none" stroke="#334155" stroke-width="3"/>
      <text x="730" y="220" text-anchor="start" fill="#0f172a" font-family="Arial, 'Malgun Gothic', sans-serif" font-size="23" font-weight="700">기록</text>
      <rect x="674" y="246" width="100" height="8" rx="4" fill="#334155" opacity="0.2"/>
    </g><circle cx="1024" cy="340" r="26" fill="#ffffff" stroke="#334155" stroke-width="6"/>
    <g>
      <rect x="928" y="388" width="192" height="106" rx="18" fill="#ffffff" stroke="#d8e2e7" stroke-width="2"/>
      <rect x="950" y="410" width="42" height="38" rx="8" fill="#334155" opacity="0.14"/><path d="M958 423 h26 M964 413 v10 M978 413 v10" stroke="#334155" stroke-width="4" stroke-linecap="round"/>
      <text x="1010" y="440" text-anchor="start" fill="#0f172a" font-family="Arial, 'Malgun Gothic', sans-serif" font-size="23" font-weight="700">완료</text>
      <rect x="954" y="466" width="100" height="8" rx="4" fill="#334155" opacity="0.2"/>
    </g>
      <rect x="862" y="486" width="220" height="58" rx="18" fill="#0f172a" opacity="0.92"/>
      <text x="972" y="523" text-anchor="middle" fill="#ffffff" font-family="Arial, 'Malgun Gothic', sans-serif" font-size="20" font-weight="700">완료</text>
    </g>
</svg>
