<?xml version="1.0" encoding="UTF-8"?>
<svg xmlns="http://www.w3.org/2000/svg" width="1200" height="675" viewBox="0 0 1200 675" role="img">
  <title>스프레드시트 상태 열에서 AI 요약과 알림 패널로 이어지는 자동화 구조</title>
  <defs>
    <marker id="arrow" markerWidth="12" markerHeight="12" refX="10" refY="6" orient="auto" markerUnits="strokeWidth">
      <path d="M2,2 L10,6 L2,10 Z" fill="#0f766e"/>
    </marker>
    <linearGradient id="panel" x1="0" x2="1" y1="0" y2="1">
      <stop offset="0" stop-color="#ffffff"/>
      <stop offset="1" stop-color="#f8fafc"/>
    </linearGradient>
  </defs>
  <rect width="1200" height="675" fill="#f8fafc"/>
  <rect x="44" y="44" width="1112" height="587" rx="32" fill="url(#panel)" stroke="#dbe4e8" stroke-width="2"/>
  <rect x="82" y="82" width="58" height="42" rx="12" fill="#102a43"/>
  <text x="111" y="110" text-anchor="middle" fill="#ffffff" font-family="Arial, 'Malgun Gothic', sans-serif" font-size="21" font-weight="700">B2</text>
  <g opacity="0.9">
    <circle cx="1084" cy="108" r="10" fill="#f59e0b"/>
    <circle cx="1114" cy="108" r="10" fill="#0f766e" opacity="0.72"/>
  </g>

    <g data-family="spreadsheet-ai-panel">
      <rect x="92" y="134" width="612" height="390" rx="24" fill="#ffffff" stroke="#d8e2e7" stroke-width="2"/>
      <rect x="112" y="158" width="560" height="40" rx="12" fill="#102a43"/>
      <text x="146" y="185" text-anchor="start" fill="#ffffff" font-family="Arial, 'Malgun Gothic', sans-serif" font-size="18" font-weight="700">상태</text>
      <rect x="112" y="198" width="560" height="42" fill="#f8fafc" stroke="#d8e2e7"/><rect x="132" y="212" width="110" height="8" rx="4" fill="#cbd5e1"/><rect x="392" y="210" width="96" height="18" rx="9" fill="#d8f3ee"/><rect x="112" y="246" width="560" height="42" fill="#ffffff" stroke="#d8e2e7"/><rect x="132" y="260" width="122" height="8" rx="4" fill="#0f766e"/><rect x="392" y="258" width="96" height="18" rx="9" fill="#e2e8f0"/><rect x="112" y="294" width="560" height="42" fill="#f8fafc" stroke="#d8e2e7"/><rect x="132" y="308" width="134" height="8" rx="4" fill="#cbd5e1"/><rect x="392" y="306" width="96" height="18" rx="9" fill="#e2e8f0"/><rect x="112" y="342" width="560" height="42" fill="#ffffff" stroke="#d8e2e7"/><rect x="132" y="356" width="146" height="8" rx="4" fill="#cbd5e1"/><rect x="392" y="354" width="96" height="18" rx="9" fill="#d8f3ee"/><rect x="112" y="390" width="560" height="42" fill="#f8fafc" stroke="#d8e2e7"/><rect x="132" y="404" width="158" height="8" rx="4" fill="#cbd5e1"/><rect x="392" y="402" width="96" height="18" rx="9" fill="#e2e8f0"/><rect x="112" y="438" width="560" height="42" fill="#ffffff" stroke="#d8e2e7"/><rect x="132" y="452" width="170" height="8" rx="4" fill="#cbd5e1"/><rect x="392" y="450" width="96" height="18" rx="9" fill="#e2e8f0"/>
      <rect x="760" y="154" width="310" height="150" rx="24" fill="#d8f3ee" stroke="#0f766e" stroke-width="2"/>
      <text x="806" y="218" text-anchor="start" fill="#102a43" font-family="Arial, 'Malgun Gothic', sans-serif" font-size="26" font-weight="700">요약</text>
      <rect x="804" y="246" width="188" height="10" rx="5" fill="#0f766e" opacity="0.5"/>
      <rect x="816" y="354" width="250" height="120" rx="24" fill="#ffffff" stroke="#d8e2e7" stroke-width="2"/>
      <text x="860" y="418" text-anchor="start" fill="#102a43" font-family="Arial, 'Malgun Gothic', sans-serif" font-size="24" font-weight="700">알림</text>
      <path d="M 704 328 C 732 328, 732 228, 760 228" stroke="#0f766e" stroke-width="4" fill="none" stroke-linecap="round" marker-end="url(#arrow)"/>
      <path d="M 704 384 C 760 384, 760 414, 816 414" stroke="#0f766e" stroke-width="4" fill="none" stroke-linecap="round" marker-end="url(#arrow)"/>
    </g>
</svg>
