<?xml version="1.0" encoding="UTF-8"?>
<svg xmlns="http://www.w3.org/2000/svg" width="1200" height="675" viewBox="0 0 1200 675" role="img">
  <title>미작성 계약 목록을 사유와 담당자, 재안내 일정으로 관리하는 후속 조치 보드</title>
  <defs>
    <marker id="arrow" markerWidth="12" markerHeight="12" refX="10" refY="6" orient="auto" markerUnits="strokeWidth">
      <path d="M2,2 L10,6 L2,10 Z" fill="#334155"/>
    </marker>
    <linearGradient id="panel" x1="0" x2="1" y1="0" y2="1">
      <stop offset="0" stop-color="#ffffff"/>
      <stop offset="1" stop-color="#f8fafc"/>
    </linearGradient>
  </defs>
  <rect width="1200" height="675" fill="#f8fafc"/>
  <rect x="44" y="44" width="1112" height="587" rx="32" fill="url(#panel)" stroke="#dbe4e8" stroke-width="2"/>
  <rect x="82" y="82" width="58" height="42" rx="12" fill="#0f172a"/>
  <text x="111" y="110" text-anchor="middle" fill="#ffffff" font-family="Arial, 'Malgun Gothic', sans-serif" font-size="21" font-weight="700">B2</text>
  <g opacity="0.9">
    <circle cx="1084" cy="108" r="10" fill="#0d9488"/>
    <circle cx="1114" cy="108" r="10" fill="#334155" opacity="0.72"/>
  </g>

    <g data-family="unsigned-follow-up-board">
      <rect x="116" y="132" width="660" height="418" rx="28" fill="#ffffff" stroke="#d8e2e7" stroke-width="2"/>
      <rect x="152" y="178" width="584" height="58" rx="16" fill="#e2e8f0" stroke="#d8e2e7"/><circle cx="188" cy="207" r="10" fill="#0d9488"/><text x="224" y="216" text-anchor="start" fill="#0f172a" font-family="Arial, 'Malgun Gothic', sans-serif" font-size="22" font-weight="700">미작성</text><rect x="510" y="201" width="160" height="10" rx="5" fill="#cbd5e1"/><rect x="152" y="262" width="584" height="58" rx="16" fill="#f8fafc" stroke="#d8e2e7"/><circle cx="188" cy="291" r="10" fill="#334155"/><text x="224" y="300" text-anchor="start" fill="#0f172a" font-family="Arial, 'Malgun Gothic', sans-serif" font-size="22" font-weight="700">사유</text><rect x="510" y="285" width="160" height="10" rx="5" fill="#cbd5e1"/><rect x="152" y="346" width="584" height="58" rx="16" fill="#f8fafc" stroke="#d8e2e7"/><circle cx="188" cy="375" r="10" fill="#334155"/><text x="224" y="384" text-anchor="start" fill="#0f172a" font-family="Arial, 'Malgun Gothic', sans-serif" font-size="22" font-weight="700">담당</text><rect x="510" y="369" width="160" height="10" rx="5" fill="#cbd5e1"/><rect x="152" y="430" width="584" height="58" rx="16" fill="#f8fafc" stroke="#d8e2e7"/><circle cx="188" cy="459" r="10" fill="#334155"/><text x="224" y="468" text-anchor="start" fill="#0f172a" font-family="Arial, 'Malgun Gothic', sans-serif" font-size="22" font-weight="700">재안내</text><rect x="510" y="453" width="160" height="10" rx="5" fill="#cbd5e1"/>
      <rect x="842" y="170" width="220" height="300" rx="26" fill="#e2e8f0" stroke="#334155" stroke-width="2"/>
      <text x="952" y="308" text-anchor="middle" fill="#0f172a" font-family="Arial, 'Malgun Gothic', sans-serif" font-size="28" font-weight="700">재안내</text>
      <path d="M918 350 l24 24 l48 -70" fill="none" stroke="#334155" stroke-width="10" stroke-linecap="round" stroke-linejoin="round"/>
    </g>
</svg>
