<?xml version="1.0" encoding="UTF-8"?>
<svg xmlns="http://www.w3.org/2000/svg" width="1200" height="675" viewBox="0 0 1200 675" role="img">
  <title>업무 기준과 고객 응대 노트가 서로 연결된 회사 지식창고 그래프</title>
  <defs>
    <marker id="arrow" markerWidth="12" markerHeight="12" refX="10" refY="6" orient="auto" markerUnits="strokeWidth">
      <path d="M2,2 L10,6 L2,10 Z" fill="#0f766e"/>
    </marker>
    <linearGradient id="panel" x1="0" x2="1" y1="0" y2="1">
      <stop offset="0" stop-color="#ffffff"/>
      <stop offset="1" stop-color="#f8fafc"/>
    </linearGradient>
  </defs>
  <rect width="1200" height="675" fill="#f8fafc"/>
  <rect x="44" y="44" width="1112" height="587" rx="32" fill="url(#panel)" stroke="#dbe4e8" stroke-width="2"/>
  <rect x="82" y="82" width="58" height="42" rx="12" fill="#102a43"/>
  <text x="111" y="110" text-anchor="middle" fill="#ffffff" font-family="Arial, 'Malgun Gothic', sans-serif" font-size="21" font-weight="700">B2</text>
  <g opacity="0.9">
    <circle cx="1084" cy="108" r="10" fill="#f59e0b"/>
    <circle cx="1114" cy="108" r="10" fill="#0f766e" opacity="0.72"/>
  </g>

    <g data-family="knowledge-graph">
      <path d="M250 210 L505 168" stroke="#cbd5e1" stroke-width="3"/><path d="M250 210 L710 302" stroke="#cbd5e1" stroke-width="3"/><path d="M250 210 L470 462" stroke="#cbd5e1" stroke-width="3"/><path d="M250 210 L870 468" stroke="#cbd5e1" stroke-width="3"/><path d="M505 168 L710 302" stroke="#cbd5e1" stroke-width="3"/><path d="M505 168 L470 462" stroke="#cbd5e1" stroke-width="3"/><path d="M505 168 L870 468" stroke="#cbd5e1" stroke-width="3"/><path d="M710 302 L470 462" stroke="#cbd5e1" stroke-width="3"/><path d="M710 302 L870 468" stroke="#cbd5e1" stroke-width="3"/><path d="M470 462 L870 468" stroke="#cbd5e1" stroke-width="3"/>

          <g>
            <circle cx="250" cy="210" r="58" fill="#ffffff" stroke="#0f766e" stroke-width="3"/>
            <text x="250" y="218" text-anchor="middle" fill="#102a43" font-family="Arial, 'Malgun Gothic', sans-serif" font-size="24" font-weight="700">기준</text>
          </g>
          <g>
            <circle cx="505" cy="168" r="58" fill="#ffffff" stroke="#0f766e" stroke-width="3"/>
            <text x="505" y="176" text-anchor="middle" fill="#102a43" font-family="Arial, 'Malgun Gothic', sans-serif" font-size="24" font-weight="700">응대</text>
          </g>
          <g>
            <circle cx="710" cy="302" r="72" fill="#d8f3ee" stroke="#0f766e" stroke-width="3"/>
            <text x="710" y="310" text-anchor="middle" fill="#102a43" font-family="Arial, 'Malgun Gothic', sans-serif" font-size="24" font-weight="700">질문</text>
          </g>
          <g>
            <circle cx="470" cy="462" r="58" fill="#ffffff" stroke="#0f766e" stroke-width="3"/>
            <text x="470" y="470" text-anchor="middle" fill="#102a43" font-family="Arial, 'Malgun Gothic', sans-serif" font-size="24" font-weight="700">연결</text>
          </g>
          <g>
            <circle cx="870" cy="468" r="58" fill="#ffffff" stroke="#0f766e" stroke-width="3"/>
            <text x="870" y="476" text-anchor="middle" fill="#102a43" font-family="Arial, 'Malgun Gothic', sans-serif" font-size="24" font-weight="700">기준</text>
          </g>
      <rect x="122" y="512" width="264" height="72" rx="18" fill="#ffffff" stroke="#d8e2e7" stroke-width="2"/>
      <rect x="156" y="542" width="170" height="10" rx="5" fill="#0f766e" opacity="0.45"/>
    </g>
</svg>
