<?xml version="1.0" encoding="UTF-8"?>
<svg xmlns="http://www.w3.org/2000/svg" width="1200" height="675" viewBox="0 0 1200 675" role="img">
  <title>자동화 전에 입력 원본과 예외 상황을 확인하는 준비 체크리스트</title>
  <defs>
    <marker id="arrow" markerWidth="12" markerHeight="12" refX="10" refY="6" orient="auto" markerUnits="strokeWidth">
      <path d="M2,2 L10,6 L2,10 Z" fill="#0f766e"/>
    </marker>
    <linearGradient id="panel" x1="0" x2="1" y1="0" y2="1">
      <stop offset="0" stop-color="#ffffff"/>
      <stop offset="1" stop-color="#f8fafc"/>
    </linearGradient>
  </defs>
  <rect width="1200" height="675" fill="#f8fafc"/>
  <rect x="44" y="44" width="1112" height="587" rx="32" fill="url(#panel)" stroke="#dbe4e8" stroke-width="2"/>
  <rect x="82" y="82" width="58" height="42" rx="12" fill="#102a43"/>
  <text x="111" y="110" text-anchor="middle" fill="#ffffff" font-family="Arial, 'Malgun Gothic', sans-serif" font-size="21" font-weight="700">B2</text>
  <g opacity="0.9">
    <circle cx="1084" cy="108" r="10" fill="#f59e0b"/>
    <circle cx="1114" cy="108" r="10" fill="#0f766e" opacity="0.72"/>
  </g>

    <g data-family="readiness-checklist">
      <rect x="156" y="112" width="430" height="480" rx="32" fill="#ffffff" stroke="#d8e2e7" stroke-width="2"/>
      <rect x="268" y="92" width="206" height="58" rx="18" fill="#102a43"/>
      <path d="M214 196 l14 14 l30 -42" fill="none" stroke="#0f766e" stroke-width="8" stroke-linecap="round" stroke-linejoin="round"/><text x="296" y="208" text-anchor="start" fill="#102a43" font-family="Arial, 'Malgun Gothic', sans-serif" font-size="24" font-weight="700">원본</text><rect x="296" y="230" width="170" height="10" rx="5" fill="#cbd5e1"/><path d="M214 282 l14 14 l30 -42" fill="none" stroke="#f59e0b" stroke-width="8" stroke-linecap="round" stroke-linejoin="round"/><text x="296" y="294" text-anchor="start" fill="#102a43" font-family="Arial, 'Malgun Gothic', sans-serif" font-size="24" font-weight="700">예외</text><rect x="296" y="316" width="196" height="10" rx="5" fill="#cbd5e1"/><path d="M214 368 l14 14 l30 -42" fill="none" stroke="#0f766e" stroke-width="8" stroke-linecap="round" stroke-linejoin="round"/><text x="296" y="380" text-anchor="start" fill="#102a43" font-family="Arial, 'Malgun Gothic', sans-serif" font-size="24" font-weight="700">영향</text><rect x="296" y="402" width="222" height="10" rx="5" fill="#cbd5e1"/><path d="M214 454 l14 14 l30 -42" fill="none" stroke="#0f766e" stroke-width="8" stroke-linecap="round" stroke-linejoin="round"/><text x="296" y="466" text-anchor="start" fill="#102a43" font-family="Arial, 'Malgun Gothic', sans-serif" font-size="24" font-weight="700">범위</text><rect x="296" y="488" width="248" height="10" rx="5" fill="#cbd5e1"/>
      <rect x="704" y="168" width="330" height="128" rx="26" fill="#d8f3ee" stroke="#0f766e" stroke-width="2"/>
      <rect x="736" y="344" width="260" height="170" rx="26" fill="#ffffff" stroke="#d8e2e7" stroke-width="2"/>
      <text x="770" y="236" text-anchor="start" fill="#102a43" font-family="Arial, 'Malgun Gothic', sans-serif" font-size="24" font-weight="700">예외</text>
      <text x="786" y="432" text-anchor="start" fill="#102a43" font-family="Arial, 'Malgun Gothic', sans-serif" font-size="24" font-weight="700">범위</text>
    </g>
</svg>
