<?xml version="1.0" encoding="UTF-8"?>
<svg xmlns="http://www.w3.org/2000/svg" width="1200" height="675" viewBox="0 0 1200 675" role="img">
  <title>반복 업무를 수집하고 분류해 AI 초안과 사람 승인으로 줄이는 칸반 보드</title>
  <defs>
    <marker id="arrow" markerWidth="12" markerHeight="12" refX="10" refY="6" orient="auto" markerUnits="strokeWidth">
      <path d="M2,2 L10,6 L2,10 Z" fill="#0f766e"/>
    </marker>
    <linearGradient id="panel" x1="0" x2="1" y1="0" y2="1">
      <stop offset="0" stop-color="#ffffff"/>
      <stop offset="1" stop-color="#f8fafc"/>
    </linearGradient>
  </defs>
  <rect width="1200" height="675" fill="#f8fafc"/>
  <rect x="44" y="44" width="1112" height="587" rx="32" fill="url(#panel)" stroke="#dbe4e8" stroke-width="2"/>
  <rect x="82" y="82" width="58" height="42" rx="12" fill="#102a43"/>
  <text x="111" y="110" text-anchor="middle" fill="#ffffff" font-family="Arial, 'Malgun Gothic', sans-serif" font-size="21" font-weight="700">B2</text>
  <g opacity="0.9">
    <circle cx="1084" cy="108" r="10" fill="#f59e0b"/>
    <circle cx="1114" cy="108" r="10" fill="#0f766e" opacity="0.72"/>
  </g>

    <g data-family="reduction-kanban">
      <rect x="112" y="152" width="224" height="380" rx="24" fill="#f8fafc" stroke="#d8e2e7" stroke-width="2"/><text x="224" y="198" text-anchor="middle" fill="#102a43" font-family="Arial, 'Malgun Gothic', sans-serif" font-size="24" font-weight="700">수집</text><rect x="136" y="226" width="176" height="48" rx="12" fill="#ffffff" stroke="#d8e2e7"/><rect x="158" y="246" width="82" height="8" rx="4" fill="#0f766e" opacity="0.38"/><rect x="136" y="296" width="176" height="48" rx="12" fill="#ffffff" stroke="#d8e2e7"/><rect x="158" y="316" width="100" height="8" rx="4" fill="#0f766e" opacity="0.38"/><rect x="136" y="366" width="176" height="48" rx="12" fill="#ffffff" stroke="#d8e2e7"/><rect x="158" y="386" width="118" height="8" rx="4" fill="#0f766e" opacity="0.38"/><rect x="136" y="436" width="176" height="48" rx="12" fill="#ffffff" stroke="#d8e2e7"/><rect x="158" y="456" width="136" height="8" rx="4" fill="#0f766e" opacity="0.38"/><rect x="367" y="152" width="224" height="380" rx="24" fill="#f8fafc" stroke="#d8e2e7" stroke-width="2"/><text x="479" y="198" text-anchor="middle" fill="#102a43" font-family="Arial, 'Malgun Gothic', sans-serif" font-size="24" font-weight="700">분류</text><rect x="391" y="226" width="176" height="48" rx="12" fill="#ffffff" stroke="#d8e2e7"/><rect x="413" y="246" width="82" height="8" rx="4" fill="#0f766e" opacity="0.38"/><rect x="391" y="296" width="176" height="48" rx="12" fill="#ffffff" stroke="#d8e2e7"/><rect x="413" y="316" width="100" height="8" rx="4" fill="#0f766e" opacity="0.38"/><rect x="391" y="366" width="176" height="48" rx="12" fill="#ffffff" stroke="#d8e2e7"/><rect x="413" y="386" width="118" height="8" rx="4" fill="#0f766e" opacity="0.38"/><rect x="622" y="152" width="224" height="380" rx="24" fill="#f8fafc" stroke="#d8e2e7" stroke-width="2"/><text x="734" y="198" text-anchor="middle" fill="#102a43" font-family="Arial, 'Malgun Gothic', sans-serif" font-size="24" font-weight="700">초안</text><rect x="646" y="226" width="176" height="48" rx="12" fill="#ffffff" stroke="#d8e2e7"/><rect x="668" y="246" width="82" height="8" rx="4" fill="#0f766e" opacity="0.38"/><rect x="646" y="296" width="176" height="48" rx="12" fill="#ffffff" stroke="#d8e2e7"/><rect x="668" y="316" width="100" height="8" rx="4" fill="#0f766e" opacity="0.38"/><rect x="877" y="152" width="224" height="380" rx="24" fill="#d8f3ee" stroke="#d8e2e7" stroke-width="2"/><text x="989" y="198" text-anchor="middle" fill="#102a43" font-family="Arial, 'Malgun Gothic', sans-serif" font-size="24" font-weight="700">승인</text><rect x="901" y="226" width="176" height="48" rx="12" fill="#ffffff" stroke="#d8e2e7"/><rect x="923" y="246" width="82" height="8" rx="4" fill="#f59e0b" opacity="0.38"/><rect x="901" y="296" width="176" height="48" rx="12" fill="#ffffff" stroke="#d8e2e7"/><rect x="923" y="316" width="100" height="8" rx="4" fill="#f59e0b" opacity="0.38"/>
    </g>
</svg>
