<?xml version="1.0" encoding="UTF-8"?>
<svg xmlns="http://www.w3.org/2000/svg" width="1200" height="675" viewBox="0 0 1200 675" role="img">
  <title>매출 목표와 청구, 입금, 미수금 대기 상태를 연결한 영업관리 지도</title>
  <defs>
    <marker id="arrow" markerWidth="12" markerHeight="12" refX="10" refY="6" orient="auto" markerUnits="strokeWidth">
      <path d="M2,2 L10,6 L2,10 Z" fill="#2563eb"/>
    </marker>
    <linearGradient id="panel" x1="0" x2="1" y1="0" y2="1">
      <stop offset="0" stop-color="#ffffff"/>
      <stop offset="1" stop-color="#f8fafc"/>
    </linearGradient>
  </defs>
  <rect width="1200" height="675" fill="#f8fafc"/>
  <rect x="44" y="44" width="1112" height="587" rx="32" fill="url(#panel)" stroke="#dbe4e8" stroke-width="2"/>
  <rect x="82" y="82" width="58" height="42" rx="12" fill="#172554"/>
  <text x="111" y="110" text-anchor="middle" fill="#ffffff" font-family="Arial, 'Malgun Gothic', sans-serif" font-size="21" font-weight="700">B2</text>
  <g opacity="0.9">
    <circle cx="1084" cy="108" r="10" fill="#14b8a6"/>
    <circle cx="1114" cy="108" r="10" fill="#2563eb" opacity="0.72"/>
  </g>

    <g data-family="revenue-ar-map">
      <rect x="102" y="130" width="996" height="430" rx="28" fill="#ffffff" stroke="#d8e2e7" stroke-width="2"/>

    <g>
      <rect x="146" y="178" width="196" height="116" rx="18" fill="#ffffff" stroke="#d8e2e7" stroke-width="2"/>
      <text x="170" y="220" text-anchor="start" fill="#172554" font-family="Arial, 'Malgun Gothic', sans-serif" font-size="22" font-weight="700">매출</text>
      <rect x="170" y="244" width="138" height="12" rx="6" fill="#dbeafe"/>
      <rect x="170" y="244" width="80" height="12" rx="6" fill="#2563eb"/>
    </g>

    <g>
      <rect x="376" y="178" width="196" height="116" rx="18" fill="#ffffff" stroke="#d8e2e7" stroke-width="2"/>
      <text x="400" y="220" text-anchor="start" fill="#172554" font-family="Arial, 'Malgun Gothic', sans-serif" font-size="22" font-weight="700">청구</text>
      <rect x="400" y="244" width="138" height="12" rx="6" fill="#dbeafe"/>
      <rect x="400" y="244" width="80" height="12" rx="6" fill="#2563eb"/>
    </g>

    <g>
      <rect x="606" y="178" width="196" height="116" rx="18" fill="#ffffff" stroke="#d8e2e7" stroke-width="2"/>
      <text x="630" y="220" text-anchor="start" fill="#172554" font-family="Arial, 'Malgun Gothic', sans-serif" font-size="22" font-weight="700">입금</text>
      <rect x="630" y="244" width="138" height="12" rx="6" fill="#dbeafe"/>
      <rect x="630" y="244" width="80" height="12" rx="6" fill="#2563eb"/>
    </g>

    <g>
      <rect x="836" y="178" width="196" height="116" rx="18" fill="#ffffff" stroke="#d8e2e7" stroke-width="2"/>
      <text x="860" y="220" text-anchor="start" fill="#172554" font-family="Arial, 'Malgun Gothic', sans-serif" font-size="22" font-weight="700">대기</text>
      <rect x="860" y="244" width="138" height="12" rx="6" fill="#dbeafe"/>
      <rect x="860" y="244" width="80" height="12" rx="6" fill="#2563eb"/>
    </g>
      <path d="M178 476 C 310 352, 422 454, 548 358 S 812 422, 982 302" fill="none" stroke="#2563eb" stroke-width="8" stroke-linecap="round"/>
      <rect x="166" y="492" width="820" height="16" rx="8" fill="#dbeafe"/>
    </g>
</svg>
