<?xml version="1.0" encoding="UTF-8"?>
<svg xmlns="http://www.w3.org/2000/svg" width="1200" height="675" viewBox="0 0 1200 675" role="img">
  <title>목표 대비 실적 게이지와 부족분, 필요한 행동량을 보여주는 매출 달성률 화면</title>
  <defs>
    <marker id="arrow" markerWidth="12" markerHeight="12" refX="10" refY="6" orient="auto" markerUnits="strokeWidth">
      <path d="M2,2 L10,6 L2,10 Z" fill="#2563eb"/>
    </marker>
    <linearGradient id="panel" x1="0" x2="1" y1="0" y2="1">
      <stop offset="0" stop-color="#ffffff"/>
      <stop offset="1" stop-color="#f8fafc"/>
    </linearGradient>
  </defs>
  <rect width="1200" height="675" fill="#f8fafc"/>
  <rect x="44" y="44" width="1112" height="587" rx="32" fill="url(#panel)" stroke="#dbe4e8" stroke-width="2"/>
  <rect x="82" y="82" width="58" height="42" rx="12" fill="#172554"/>
  <text x="111" y="110" text-anchor="middle" fill="#ffffff" font-family="Arial, 'Malgun Gothic', sans-serif" font-size="21" font-weight="700">B2</text>
  <g opacity="0.9">
    <circle cx="1084" cy="108" r="10" fill="#14b8a6"/>
    <circle cx="1114" cy="108" r="10" fill="#2563eb" opacity="0.72"/>
  </g>

    <g data-family="achievement-gauge">
      <path d="M258 472 A250 250 0 0 1 758 472" fill="none" stroke="#dbeafe" stroke-width="54" stroke-linecap="round"/>
      <path d="M258 472 A250 250 0 0 1 624 246" fill="none" stroke="#2563eb" stroke-width="54" stroke-linecap="round"/>
      <circle cx="508" cy="472" r="22" fill="#172554"/>
      <path d="M508 472 L638 324" stroke="#172554" stroke-width="8" stroke-linecap="round"/>
      <text x="508" y="550" text-anchor="middle" fill="#172554" font-family="Arial, 'Malgun Gothic', sans-serif" font-size="30" font-weight="700">실적</text>

    <g>
      <rect x="824" y="174" width="236" height="96" rx="18" fill="#dbeafe" stroke="#d8e2e7" stroke-width="2"/>
      <circle cx="867" cy="217" r="15" fill="#2563eb" opacity="0.14"/><circle cx="867" cy="217" r="6" fill="#2563eb"/>
      <text x="906" y="226" text-anchor="start" fill="#172554" font-family="Arial, 'Malgun Gothic', sans-serif" font-size="23" font-weight="700">부족</text>
      <rect x="850" y="242" width="144" height="8" rx="4" fill="#2563eb" opacity="0.2"/>
    </g>

    <g>
      <rect x="824" y="326" width="236" height="96" rx="18" fill="#ffffff" stroke="#d8e2e7" stroke-width="2"/>
      <path d="M850 368 l9 10 l20 -27" fill="none" stroke="#2563eb" stroke-width="6" stroke-linecap="round" stroke-linejoin="round"/>
      <text x="906" y="378" text-anchor="start" fill="#172554" font-family="Arial, 'Malgun Gothic', sans-serif" font-size="23" font-weight="700">행동</text>
      <rect x="850" y="394" width="144" height="8" rx="4" fill="#2563eb" opacity="0.2"/>
    </g>
    </g>
</svg>
