<?xml version="1.0" encoding="UTF-8"?>
<svg xmlns="http://www.w3.org/2000/svg" width="1200" height="675" viewBox="0 0 1200 675" role="img">
  <title>1인 사업자의 상담과 주문, 정산, 고객 기록이 순환하는 업무 시스템</title>
  <defs>
    <marker id="arrow" markerWidth="12" markerHeight="12" refX="10" refY="6" orient="auto" markerUnits="strokeWidth">
      <path d="M2,2 L10,6 L2,10 Z" fill="#047857"/>
    </marker>
    <linearGradient id="panel" x1="0" x2="1" y1="0" y2="1">
      <stop offset="0" stop-color="#ffffff"/>
      <stop offset="1" stop-color="#fbfdf8"/>
    </linearGradient>
  </defs>
  <rect width="1200" height="675" fill="#fbfdf8"/>
  <rect x="44" y="44" width="1112" height="587" rx="32" fill="url(#panel)" stroke="#dbe4e8" stroke-width="2"/>
  <rect x="82" y="82" width="58" height="42" rx="12" fill="#1f2937"/>
  <text x="111" y="110" text-anchor="middle" fill="#ffffff" font-family="Arial, 'Malgun Gothic', sans-serif" font-size="21" font-weight="700">B2</text>
  <g opacity="0.9">
    <circle cx="1084" cy="108" r="10" fill="#f97316"/>
    <circle cx="1114" cy="108" r="10" fill="#047857" opacity="0.72"/>
  </g>

    <g data-family="solo-system-loop">
      <path d="M450 236 C560 126, 736 126, 846 236 M846 430 C736 540, 560 540, 450 430 M318 318 C236 410, 250 492, 342 512 M938 318 C1020 226, 1006 144, 914 124" fill="none" stroke="#047857" stroke-width="6" stroke-linecap="round" marker-end="url(#arrow)" opacity="0.7"/>

    <g>
      <rect x="230" y="140" width="224" height="100" rx="18" fill="#ffffff" stroke="#d8e2e7" stroke-width="2"/>
      <circle cx="273" cy="183" r="15" fill="#047857" opacity="0.14"/><circle cx="273" cy="183" r="6" fill="#047857"/>
      <text x="312" y="192" text-anchor="start" fill="#1f2937" font-family="Arial, 'Malgun Gothic', sans-serif" font-size="23" font-weight="700">상담</text>
      <rect x="256" y="212" width="132" height="8" rx="4" fill="#047857" opacity="0.2"/>
    </g>
    <g>
      <rect x="630" y="140" width="224" height="100" rx="18" fill="#ffffff" stroke="#d8e2e7" stroke-width="2"/>
      <circle cx="673" cy="183" r="15" fill="#047857" opacity="0.14"/><circle cx="673" cy="183" r="6" fill="#047857"/>
      <text x="712" y="192" text-anchor="start" fill="#1f2937" font-family="Arial, 'Malgun Gothic', sans-serif" font-size="23" font-weight="700">주문</text>
      <rect x="656" y="212" width="132" height="8" rx="4" fill="#047857" opacity="0.2"/>
    </g>
    <g>
      <rect x="630" y="380" width="224" height="100" rx="18" fill="#d1fae5" stroke="#d8e2e7" stroke-width="2"/>
      <circle cx="673" cy="423" r="15" fill="#047857" opacity="0.14"/><circle cx="673" cy="423" r="6" fill="#047857"/>
      <text x="712" y="432" text-anchor="start" fill="#1f2937" font-family="Arial, 'Malgun Gothic', sans-serif" font-size="23" font-weight="700">정산</text>
      <rect x="656" y="452" width="132" height="8" rx="4" fill="#047857" opacity="0.2"/>
    </g>
    <g>
      <rect x="230" y="380" width="224" height="100" rx="18" fill="#ffffff" stroke="#d8e2e7" stroke-width="2"/>
      <path d="M256 422 l9 10 l20 -27" fill="none" stroke="#047857" stroke-width="6" stroke-linecap="round" stroke-linejoin="round"/>
      <text x="312" y="432" text-anchor="start" fill="#1f2937" font-family="Arial, 'Malgun Gothic', sans-serif" font-size="23" font-weight="700">기록</text>
      <rect x="256" y="452" width="132" height="8" rx="4" fill="#047857" opacity="0.2"/>
    </g>
      <circle cx="592" cy="334" r="72" fill="#ffffff" stroke="#d8e2e7" stroke-width="2"/>
      <circle cx="592" cy="334" r="34" fill="#d1fae5" stroke="#047857" stroke-width="3"/>
    </g>
</svg>
