<?xml version="1.0" encoding="UTF-8"?>
<svg xmlns="http://www.w3.org/2000/svg" width="1200" height="675" viewBox="0 0 1200 675" role="img">
  <title>전화와 메신저, 플랫폼 주문을 한곳의 처리 상태판으로 모으는 매장 주문 흐름</title>
  <defs>
    <marker id="arrow" markerWidth="12" markerHeight="12" refX="10" refY="6" orient="auto" markerUnits="strokeWidth">
      <path d="M2,2 L10,6 L2,10 Z" fill="#047857"/>
    </marker>
    <linearGradient id="panel" x1="0" x2="1" y1="0" y2="1">
      <stop offset="0" stop-color="#ffffff"/>
      <stop offset="1" stop-color="#fbfdf8"/>
    </linearGradient>
  </defs>
  <rect width="1200" height="675" fill="#fbfdf8"/>
  <rect x="44" y="44" width="1112" height="587" rx="32" fill="url(#panel)" stroke="#dbe4e8" stroke-width="2"/>
  <rect x="82" y="82" width="58" height="42" rx="12" fill="#1f2937"/>
  <text x="111" y="110" text-anchor="middle" fill="#ffffff" font-family="Arial, 'Malgun Gothic', sans-serif" font-size="21" font-weight="700">B2</text>
  <g opacity="0.9">
    <circle cx="1084" cy="108" r="10" fill="#f97316"/>
    <circle cx="1114" cy="108" r="10" fill="#047857" opacity="0.72"/>
  </g>

    <g data-family="restaurant-order-pipeline">

    <g>
      <rect x="112" y="162" width="230" height="86" rx="18" fill="#ffffff" stroke="#d8e2e7" stroke-width="2"/>
      <circle cx="155" cy="205" r="15" fill="#047857" opacity="0.14"/><circle cx="155" cy="205" r="6" fill="#047857"/>
      <text x="194" y="214" text-anchor="start" fill="#1f2937" font-family="Arial, 'Malgun Gothic', sans-serif" font-size="23" font-weight="700">전화</text>
      <rect x="138" y="220" width="138" height="8" rx="4" fill="#047857" opacity="0.2"/>
    </g>
    <g>
      <rect x="112" y="286" width="230" height="86" rx="18" fill="#ffffff" stroke="#d8e2e7" stroke-width="2"/>
      <circle cx="155" cy="329" r="15" fill="#047857" opacity="0.14"/><circle cx="155" cy="329" r="6" fill="#047857"/>
      <text x="194" y="338" text-anchor="start" fill="#1f2937" font-family="Arial, 'Malgun Gothic', sans-serif" font-size="23" font-weight="700">메신저</text>
      <rect x="138" y="344" width="138" height="8" rx="4" fill="#047857" opacity="0.2"/>
    </g>
    <g>
      <rect x="112" y="410" width="230" height="86" rx="18" fill="#ffffff" stroke="#d8e2e7" stroke-width="2"/>
      <rect x="134" y="432" width="42" height="38" rx="8" fill="#047857" opacity="0.14"/><path d="M142 445 h26 M148 435 v10 M162 435 v10" stroke="#047857" stroke-width="4" stroke-linecap="round"/>
      <text x="194" y="462" text-anchor="start" fill="#1f2937" font-family="Arial, 'Malgun Gothic', sans-serif" font-size="23" font-weight="700">플랫폼</text>
      <rect x="138" y="468" width="138" height="8" rx="4" fill="#047857" opacity="0.2"/>
    </g>
      <path d="M406 184 H1010 L900 474 H516 Z" fill="#d1fae5" stroke="#047857" stroke-width="3"/>
      <path d="M450 250 H966 M480 322 H938 M514 394 H906" stroke="#ffffff" stroke-width="16" stroke-linecap="round"/>
      <text x="706" y="338" text-anchor="middle" fill="#1f2937" font-family="Arial, 'Malgun Gothic', sans-serif" font-size="30" font-weight="700">처리</text>
    </g>
</svg>
