<?xml version='1.0' encoding='utf-8'?>
<svg xmlns="http://www.w3.org/2000/svg" viewBox="0 0 640 460" width="640" height="460" role="img" aria-labelledby="title description" font-family="Arial, Malgun Gothic, Apple SD Gothic Neo, sans-serif"><title id="title">변화할 때 나타나는 유도 전류</title><desc id="description">철 고리의 두 코일과 연결·끊김에 대응하는 잠시의 전류를 구분한 개념도</desc><defs><marker id="arrow" viewBox="0 0 10 10" refX="9" refY="5" markerWidth="8" markerHeight="8" orient="auto-start-reverse"><path d="M 0 0 L 10 5 L 0 10 z" fill="#2d6c68" /></marker></defs><rect x="1" y="1" width="638" height="458" fill="#f7f4ed" stroke="#d7d5ca" stroke-width="2" rx="12" /><text x="320" y="45" fill="#8c451e" font-size="28" text-anchor="middle">변화할 때 나타나는 유도 전류</text><circle cx="320" cy="201" r="102" fill="#eeece3" stroke="#202b2c" stroke-width="2" /><circle cx="320" cy="201" r="57" fill="#f7f4ed" stroke="#202b2c" stroke-width="2" /><path d="M224 146 Q199 201 224 259" stroke="#8c451e" stroke-width="6" fill="none" stroke-linecap="round" stroke-linejoin="round" /><path d="M238 146 Q213 201 238 259" stroke="#8c451e" stroke-width="6" fill="none" stroke-linecap="round" stroke-linejoin="round" /><path d="M252 146 Q227 201 252 259" stroke="#8c451e" stroke-width="6" fill="none" stroke-linecap="round" stroke-linejoin="round" /><path d="M388 146 Q413 201 388 259" stroke="#2d6c68" stroke-width="6" fill="none" stroke-linecap="round" stroke-linejoin="round" /><path d="M402 146 Q427 201 402 259" stroke="#2d6c68" stroke-width="6" fill="none" stroke-linecap="round" stroke-linejoin="round" /><path d="M416 146 Q441 201 416 259" stroke="#2d6c68" stroke-width="6" fill="none" stroke-linecap="round" stroke-linejoin="round" /><text x="116" y="164" fill="#202b2c" font-size="28" text-anchor="middle">연결</text><text x="116" y="208" fill="#202b2c" font-size="28" text-anchor="middle">· 끊김</text><line x1="160" y1="232" x2="202" y2="232" stroke="#2d6c68" stroke-width="3" stroke-linecap="round" marker-end="url(#arrow)" /><text x="532" y="164" fill="#202b2c" font-size="27" text-anchor="middle">잠시의</text><text x="532" y="208" fill="#202b2c" font-size="27" text-anchor="middle">전류</text><line x1="437" y1="232" x2="482" y2="232" stroke="#2d6c68" stroke-width="3" stroke-linecap="round" marker-end="url(#arrow)" /><path d="M114 371 H224 L236 330 L248 371 H383 L395 411 L407 371 H537" stroke="#2d6c68" stroke-width="3" fill="none" stroke-linecap="round" stroke-linejoin="round" /><text x="320" y="448" fill="#202b2c" font-size="24" text-anchor="middle">변화 구간만 나타낸 개념도</text></svg>